<svg width="63" height="32" viewBox="0 0 63 32" fill="none" xmlns="http://www.w3.org/2000/svg">
<g clip-path="url(#clip0_16_6)">
<path d="M21.3734 16.2829L19.6988 20.7751C30.9229 12.198 25.9106 21.3183 26.4423 21.8953C28.7618 21.3862 29.882 18.9647 32.6315 19.6436V23.57C32.9822 23.9661 38.7979 20.9675 39.3637 20.4583C41.0269 18.942 40.8006 15.4003 43.8895 16.2716L42.215 20.7638C53.4278 12.1867 48.438 21.3183 48.9585 21.884C51.2554 21.3975 52.3982 18.9533 55.1476 19.6323V23.5587C55.8039 24.2942 63.0792 18.761 63.0113 21.5898C62.9774 23.2193 52.4774 28.7185 52.8847 22.4272C52.5792 22.1103 47.1708 27.4738 46.1864 24.3168C45.9375 23.5361 47.5215 20.0509 45.8696 20.7525C44.0366 21.5333 40.1331 26.8062 37.9946 26.3649L37.7004 24.1245C34.7473 25.2787 30.8551 27.0665 30.3798 22.4272C30.097 22.1217 23.8852 27.9604 23.6137 23.8303C23.5797 23.2419 25.0054 20.0396 23.3648 20.7412C21.5318 21.5219 17.6169 26.7949 15.4898 26.3536C14.4941 26.1499 14.8901 25.4144 15.0372 24.8034C15.3314 23.6719 18.4429 17.1542 19.0878 16.5997C19.8459 15.9434 20.5248 16.2603 21.3847 16.2376L21.3734 16.2829Z" fill="white"/>
<path d="M24.4738 0C20.6494 3.13437 18.8844 7.87553 15.9878 11.7341C15.4334 12.4696 12.5368 16.0453 12.1069 16.3395C11.1451 16.9844 9.05192 16.0566 6.90214 16.7129C4.57132 17.4257 -0.701308 21.4993 0.0794034 24.2942C1.40322 29.0806 10.1268 20.7525 10.6812 21.3296L6.74373 30.6308C6.73242 31.7397 7.98835 32.6337 8.68985 31.4229C10.5341 27.0891 12.2879 22.2801 14.5282 18.1499C16.859 13.8388 23.9307 5.71429 25.0622 2.26308C25.4242 1.14286 25.4808 0.735502 24.4625 0H24.4738ZM2.25182 23.5813C3.15699 20.7072 6.63059 18.3762 9.56108 18.5347C9.11981 19.8812 2.94201 24.215 2.25182 23.5813Z" fill="white"/>
</g>
<defs>
<clipPath id="clip0_16_6">
<rect width="63" height="32" fill="white"/>
</clipPath>
</defs>
</svg>
